<?xml version="1.0" encoding="UTF-8" standalone="no"?>
<!-- Created with Inkscape (http://www.inkscape.org/) -->

<svg
   width="131.26585mm"
   height="105.01271mm"
   viewBox="0 0 131.26585 105.01271"
   version="1.1"
   id="svg1"
   xml:space="preserve"
   xmlns="http://www.w3.org/2000/svg"
   xmlns:svg="http://www.w3.org/2000/svg"><defs
     id="defs1" /><g
     id="layer1"
     transform="translate(-39.367066,-95.99365)"><g
       id="g1"
       style="fill:#ffffff"><g
         id="g4"
         transform="matrix(1.5707955,0,0,1.5707955,-90.444013,13.433994)"
         style="fill:#ffffff"><path
           style="opacity:1;fill:#ffffff;stroke:none;stroke-width:0.0750393;stroke-dasharray:none"
           d="m 131.36949,82.716 -8.48354,-15.437682 -13.66341,-8.741128 10.33155,11.486517 -12.63024,-3.761714 11.33332,7.297964 -11.09399,5.309723 12.27566,-1.635969 -5.36508,15.822353 -19.775765,-3.18668 12.272865,5.841047 -18.193085,6.601999 15.397135,-1.693 -17.250113,12.81485 50.766163,-20.456486 4.06901,-8.277328 4.45608,-6.700915 4.20875,-4.112945 -2.22546,0.889131 1.67858,-2.619135 -4.9729,2.958905 -12.48347,0.621192 3.74564,1.619032 -5.48665,1.348555 5.99295,1.159937 z"
           id="path3" /><circle
           style="opacity:1;fill:none;stroke:#ffffff;stroke-width:1.27324;stroke-linecap:round;stroke-linejoin:round;stroke-dasharray:none"
           id="path4"
           cx="158.65388"
           cy="66.406136"
           r="3.2934954" /><circle
           style="opacity:1;fill:none;stroke:#ffffff;stroke-width:1.27324;stroke-linecap:round;stroke-linejoin:round;stroke-dasharray:none"
           id="circle4"
           cx="152.67001"
           cy="71.005531"
           r="2.1078372" /></g><rect
         style="fill:none;stroke:none;stroke-width:0.917494;stroke-linecap:round;stroke-linejoin:round;stroke-dasharray:none"
         id="rect4"
         width="131.26587"
         height="105.01271"
         x="39.367065"
         y="95.993645" /></g></g></svg>
